<mxfile host="Electron" modified="2024-05-13T11:04:20.499Z" agent="Mozilla/5.0 (Windows NT 10.0; Win64; x64) AppleWebKit/537.36 (KHTML, like Gecko) draw.io/22.1.16 Chrome/120.0.6099.109 Electron/28.1.0 Safari/537.36" etag="SgQPcjMRF-YRJ-XrmEo-" version="22.1.16" type="device">
  <diagram name="第 1 页" id="sGx7kQDxprYPyDy8vOU1">
    <mxGraphModel dx="954" dy="765" grid="1" gridSize="10" guides="1" tooltips="1" connect="1" arrows="1" fold="1" page="1" pageScale="1" pageWidth="3300" pageHeight="4681" math="0" shadow="0">
      <root>
        <mxCell id="0" />
        <mxCell id="1" parent="0" />
        <mxCell id="jW4ISnwLS0bRes_p1n_g-1" style="edgeStyle=orthogonalEdgeStyle;rounded=1;orthogonalLoop=1;jettySize=auto;html=1;exitX=0.5;exitY=1;exitDx=0;exitDy=0;" edge="1" parent="1">
          <mxGeometry relative="1" as="geometry">
            <mxPoint x="429.5" y="580" as="targetPoint" />
            <mxPoint x="429.5" y="410" as="sourcePoint" />
          </mxGeometry>
        </mxCell>
        <mxCell id="jW4ISnwLS0bRes_p1n_g-2" value="" style="rounded=1;whiteSpace=wrap;html=1;fillColor=#d5e8d4;strokeColor=#82b366;" vertex="1" parent="1">
          <mxGeometry x="350" y="190" width="280" height="220" as="geometry" />
        </mxCell>
        <mxCell id="jW4ISnwLS0bRes_p1n_g-3" value="&lt;font style=&quot;font-size: 17px;&quot;&gt;法语&lt;/font&gt;" style="text;html=1;strokeColor=none;fillColor=none;align=center;verticalAlign=middle;whiteSpace=wrap;rounded=1;" vertex="1" parent="1">
          <mxGeometry x="400" y="80" width="60" height="30" as="geometry" />
        </mxCell>
        <mxCell id="jW4ISnwLS0bRes_p1n_g-4" value="adapter&lt;br&gt;_gai" style="rounded=1;whiteSpace=wrap;html=1;" vertex="1" parent="1">
          <mxGeometry x="380" y="272.5" width="60" height="55" as="geometry" />
        </mxCell>
        <mxCell id="jW4ISnwLS0bRes_p1n_g-6" style="edgeStyle=orthogonalEdgeStyle;rounded=1;orthogonalLoop=1;jettySize=auto;html=1;entryX=0.5;entryY=0;entryDx=0;entryDy=0;" edge="1" parent="1" target="jW4ISnwLS0bRes_p1n_g-10">
          <mxGeometry relative="1" as="geometry">
            <mxPoint x="780" y="120" as="sourcePoint" />
          </mxGeometry>
        </mxCell>
        <mxCell id="jW4ISnwLS0bRes_p1n_g-7" value="" style="edgeStyle=orthogonalEdgeStyle;rounded=0;orthogonalLoop=1;jettySize=auto;html=1;" edge="1" parent="1" target="jW4ISnwLS0bRes_p1n_g-10">
          <mxGeometry relative="1" as="geometry">
            <mxPoint x="780" y="110" as="sourcePoint" />
          </mxGeometry>
        </mxCell>
        <mxCell id="jW4ISnwLS0bRes_p1n_g-8" value="&lt;font style=&quot;font-size: 17px;&quot;&gt;英文&lt;/font&gt;" style="text;html=1;strokeColor=none;fillColor=none;align=center;verticalAlign=middle;whiteSpace=wrap;rounded=1;" vertex="1" parent="1">
          <mxGeometry x="750" y="70" width="60" height="30" as="geometry" />
        </mxCell>
        <mxCell id="jW4ISnwLS0bRes_p1n_g-9" style="edgeStyle=orthogonalEdgeStyle;rounded=1;orthogonalLoop=1;jettySize=auto;html=1;" edge="1" parent="1">
          <mxGeometry relative="1" as="geometry">
            <mxPoint x="780" y="520" as="targetPoint" />
            <mxPoint x="780" y="240" as="sourcePoint" />
          </mxGeometry>
        </mxCell>
        <mxCell id="jW4ISnwLS0bRes_p1n_g-10" value="" style="rounded=1;whiteSpace=wrap;html=1;fillColor=#d5e8d4;strokeColor=#82b366;" vertex="1" parent="1">
          <mxGeometry x="720" y="180" width="120" height="60" as="geometry" />
        </mxCell>
        <mxCell id="jW4ISnwLS0bRes_p1n_g-11" value="encoder" style="rounded=1;whiteSpace=wrap;html=1;" vertex="1" parent="1">
          <mxGeometry x="730" y="190" width="100" height="40" as="geometry" />
        </mxCell>
        <mxCell id="jW4ISnwLS0bRes_p1n_g-12" value="" style="endArrow=classic;startArrow=classic;html=1;rounded=1;" edge="1" parent="1">
          <mxGeometry width="50" height="50" relative="1" as="geometry">
            <mxPoint x="430" y="560" as="sourcePoint" />
            <mxPoint x="620" y="560" as="targetPoint" />
          </mxGeometry>
        </mxCell>
        <mxCell id="jW4ISnwLS0bRes_p1n_g-13" value="LOSS计算" style="edgeLabel;html=1;align=center;verticalAlign=middle;resizable=0;points=[];rounded=1;" vertex="1" connectable="0" parent="jW4ISnwLS0bRes_p1n_g-12">
          <mxGeometry x="-0.0495" y="-4" relative="1" as="geometry">
            <mxPoint as="offset" />
          </mxGeometry>
        </mxCell>
        <mxCell id="jW4ISnwLS0bRes_p1n_g-14" value="" style="shape=image;verticalLabelPosition=bottom;verticalAlign=top;imageAspect=0;aspect=fixed;image=data:image/svg+xml,PHN2ZyB4bWxuczp4bGluaz0iaHR0cDovL3d3dy53My5vcmcvMTk5OS94bGluayIgeG1sbnM9Imh0dHA6Ly93d3cudzMub3JnLzIwMDAvc3ZnIiBoZWlnaHQ9IjIwMCIgd2lkdGg9IjIwMCIgdmVyc2lvbj0iMS4xIiB2aWV3Qm94PSIwIDAgMTAyNCAxMDI0IiBjbGFzcz0iaWNvbiI+PHBhdGggZmlsbD0iIzUxNTE1MSIgY2xhc3M9IiIgZGF0YS1zcG0tYW5jaG9yLWlkPSJhMzEzeC5zZWFyY2hfaW5kZXguMC5pNS42NGYzM2E4MWRtNXMzeCIgZD0iTTM4NS4xNTA4NDkgMzg1LjY2MjMzOGwtMTI4Ljg5NTEwNSAwIDAtMTUwLjM3NzYyMnEwLTQ5LjEwMjg5NyAxOS40MzY1NjMtOTEuNTU2NDQ0dDUzLjcwNjI5NC03NC42NzczMjMgODAuODE1MTg1LTUwLjYzNzM2MyAxMDEuNzg2MjE0LTE4LjQxMzU4NnE0OS4xMDI4OTcgMCA5NC42MjUzNzUgMTguNDEzNTg2dDgwLjgxNTE4NSA1MC42MzczNjMgNTYuMjYzNzM2IDc0LjY3NzMyMyAyMC45NzEwMjkgOTEuNTU2NDQ0bDAgMTUwLjM3NzYyMi0xMjMuNzgwMjIgMCAwLTEyMS43MzQyNjZxMC02NC40NDc1NTItMzUuODA0MTk2LTk5Ljc0MDI2dC05Ny4xODI4MTctMzUuMjkyNzA3cS01NS4yNDA3NTkgMC04OC45OTkwMDEgMzUuMjkyNzA3dC0zMy43NTgyNDIgOTkuNzQwMjZsMCAxMjEuNzM0MjY2ek04MjYuMDUzOTQ2IDQ0Ny4wNDA5NTlxMjcuNjIwMzggMCA0Ny41Njg0MzIgMTkuOTQ4MDUydDE5Ljk0ODA1MiA0Ny41Njg0MzJsMCAzMTcuMTIyODc3cTAgMjcuNjIwMzgtOS43MTgyODIgNTEuNjYwMzR0LTI2LjU5NzQwMyA0MS45NDIwNTgtMzkuODk2MTA0IDI4LjEzMTg2OC01MC42MzczNjMgMTAuMjI5NzdsLTUxNi42MDMzOTcgMHEtMjcuNjIwMzggMC01MC4xMjU4NzQtMTAuMjI5Nzd0LTM4LjM2MTYzOC0yNy4xMDg4OTEtMjQuNTUxNDQ5LTM5LjM4NDYxNS04LjY5NTMwNS00OC4wNzk5MmwwLTMyNC4yODM3MTZxMC0yNy42MjAzOCAxOS40MzY1NjMtNDcuNTY4NDMydDQ3LjA1Njk0My0xOS45NDgwNTJsNjEuMzc4NjIxIDAgMTI4Ljg5NTEwNSAwIDI1NS43NDQyNTYgMCAxMjMuNzgwMjIgMCA2MS4zNzg2MjEgMHoiLz48L3N2Zz4=;rounded=1;" vertex="1" parent="1">
          <mxGeometry x="820" y="220" width="10" height="10" as="geometry" />
        </mxCell>
        <mxCell id="jW4ISnwLS0bRes_p1n_g-16" style="edgeStyle=orthogonalEdgeStyle;rounded=0;orthogonalLoop=1;jettySize=auto;html=1;" edge="1" parent="1">
          <mxGeometry relative="1" as="geometry">
            <mxPoint x="430" y="180" as="targetPoint" />
            <mxPoint x="430" y="120" as="sourcePoint" />
          </mxGeometry>
        </mxCell>
        <mxCell id="jW4ISnwLS0bRes_p1n_g-57" value="" style="group" vertex="1" connectable="0" parent="1">
          <mxGeometry x="970" y="110" width="326.88" height="240" as="geometry" />
        </mxCell>
        <mxCell id="jW4ISnwLS0bRes_p1n_g-18" value="" style="shape=trapezoid;perimeter=trapezoidPerimeter;whiteSpace=wrap;html=1;fixedSize=1;" vertex="1" parent="jW4ISnwLS0bRes_p1n_g-57">
          <mxGeometry x="68.91679160419788" y="192" width="91.88905547226385" height="48" as="geometry" />
        </mxCell>
        <mxCell id="jW4ISnwLS0bRes_p1n_g-19" style="edgeStyle=orthogonalEdgeStyle;rounded=0;orthogonalLoop=1;jettySize=auto;html=1;entryX=0.5;entryY=0;entryDx=0;entryDy=0;" edge="1" parent="jW4ISnwLS0bRes_p1n_g-57" source="jW4ISnwLS0bRes_p1n_g-20" target="jW4ISnwLS0bRes_p1n_g-18">
          <mxGeometry relative="1" as="geometry" />
        </mxCell>
        <mxCell id="jW4ISnwLS0bRes_p1n_g-20" value="非线性层" style="rounded=0;whiteSpace=wrap;html=1;" vertex="1" parent="jW4ISnwLS0bRes_p1n_g-57">
          <mxGeometry x="82.3172788605697" y="148.8" width="65.08808095952023" height="24" as="geometry" />
        </mxCell>
        <mxCell id="jW4ISnwLS0bRes_p1n_g-21" style="edgeStyle=orthogonalEdgeStyle;rounded=0;orthogonalLoop=1;jettySize=auto;html=1;entryX=0.5;entryY=0;entryDx=0;entryDy=0;" edge="1" parent="jW4ISnwLS0bRes_p1n_g-57" source="jW4ISnwLS0bRes_p1n_g-22" target="jW4ISnwLS0bRes_p1n_g-20">
          <mxGeometry relative="1" as="geometry" />
        </mxCell>
        <mxCell id="jW4ISnwLS0bRes_p1n_g-22" value="" style="shape=trapezoid;perimeter=trapezoidPerimeter;whiteSpace=wrap;html=1;fixedSize=1;rotation=-180;" vertex="1" parent="jW4ISnwLS0bRes_p1n_g-57">
          <mxGeometry x="68.91679160419788" y="80" width="91.88905547226385" height="48" as="geometry" />
        </mxCell>
        <mxCell id="jW4ISnwLS0bRes_p1n_g-23" value="down" style="text;html=1;strokeColor=none;fillColor=none;align=center;verticalAlign=middle;whiteSpace=wrap;rounded=0;" vertex="1" parent="jW4ISnwLS0bRes_p1n_g-57">
          <mxGeometry y="92" width="45.944527736131924" height="24" as="geometry" />
        </mxCell>
        <mxCell id="jW4ISnwLS0bRes_p1n_g-24" value="up" style="text;html=1;strokeColor=none;fillColor=none;align=center;verticalAlign=middle;whiteSpace=wrap;rounded=0;" vertex="1" parent="jW4ISnwLS0bRes_p1n_g-57">
          <mxGeometry y="204" width="45.944527736131924" height="24" as="geometry" />
        </mxCell>
        <mxCell id="jW4ISnwLS0bRes_p1n_g-25" value="" style="endArrow=classic;html=1;rounded=0;entryX=0.5;entryY=1;entryDx=0;entryDy=0;" edge="1" parent="jW4ISnwLS0bRes_p1n_g-57" target="jW4ISnwLS0bRes_p1n_g-22">
          <mxGeometry width="50" height="50" relative="1" as="geometry">
            <mxPoint x="114.86131934032981" y="16" as="sourcePoint" />
            <mxPoint x="122.51874062968513" y="-16" as="targetPoint" />
          </mxGeometry>
        </mxCell>
        <mxCell id="jW4ISnwLS0bRes_p1n_g-26" style="edgeStyle=orthogonalEdgeStyle;rounded=0;orthogonalLoop=1;jettySize=auto;html=1;entryX=0;entryY=0.5;entryDx=0;entryDy=0;" edge="1" parent="jW4ISnwLS0bRes_p1n_g-57" source="jW4ISnwLS0bRes_p1n_g-37" target="jW4ISnwLS0bRes_p1n_g-22">
          <mxGeometry relative="1" as="geometry" />
        </mxCell>
        <mxCell id="jW4ISnwLS0bRes_p1n_g-27" value="" style="endArrow=classic;html=1;rounded=0;" edge="1" parent="jW4ISnwLS0bRes_p1n_g-57">
          <mxGeometry width="50" height="50" relative="1" as="geometry">
            <mxPoint x="114.86131934032981" y="48" as="sourcePoint" />
            <mxPoint x="245.03748125937025" y="48" as="targetPoint" />
          </mxGeometry>
        </mxCell>
        <mxCell id="jW4ISnwLS0bRes_p1n_g-28" value="" style="group" vertex="1" connectable="0" parent="jW4ISnwLS0bRes_p1n_g-57">
          <mxGeometry x="229.72263868065963" y="12.144000000000005" width="91.88905547226385" height="103.856" as="geometry" />
        </mxCell>
        <mxCell id="jW4ISnwLS0bRes_p1n_g-29" value="" style="rounded=1;whiteSpace=wrap;html=1;fillColor=#d5e8d4;strokeColor=#82b366;flipH=0;rotation=0;" vertex="1" parent="jW4ISnwLS0bRes_p1n_g-28">
          <mxGeometry x="20.675037481259366" width="52.644771364317826" height="63.05454545454546" as="geometry" />
        </mxCell>
        <mxCell id="jW4ISnwLS0bRes_p1n_g-30" value="Router" style="rounded=0;whiteSpace=wrap;html=1;flipH=0;rotation=0;" vertex="1" parent="jW4ISnwLS0bRes_p1n_g-28">
          <mxGeometry x="32.16116941529235" y="4.8" width="30.27074353448275" height="11.127272727272727" as="geometry" />
        </mxCell>
        <mxCell id="jW4ISnwLS0bRes_p1n_g-31" value="" style="rounded=0;whiteSpace=wrap;html=1;flipH=0;rotation=0;" vertex="1" parent="jW4ISnwLS0bRes_p1n_g-28">
          <mxGeometry x="25.26949025487256" y="28.000000000000004" width="10.528954272863567" height="24.727272727272723" as="geometry" />
        </mxCell>
        <mxCell id="jW4ISnwLS0bRes_p1n_g-32" value="" style="rounded=0;whiteSpace=wrap;html=1;flipH=0;rotation=0;" vertex="1" parent="jW4ISnwLS0bRes_p1n_g-28">
          <mxGeometry x="35.22413793103448" y="28.000000000000004" width="10.528954272863567" height="24.727272727272723" as="geometry" />
        </mxCell>
        <mxCell id="jW4ISnwLS0bRes_p1n_g-33" value="" style="rounded=0;whiteSpace=wrap;html=1;flipH=0;rotation=0;" vertex="1" parent="jW4ISnwLS0bRes_p1n_g-28">
          <mxGeometry x="45.944527736131924" y="28.000000000000004" width="10.528954272863567" height="24.727272727272723" as="geometry" />
        </mxCell>
        <mxCell id="jW4ISnwLS0bRes_p1n_g-34" value="" style="rounded=0;whiteSpace=wrap;html=1;flipH=0;rotation=0;" vertex="1" parent="jW4ISnwLS0bRes_p1n_g-28">
          <mxGeometry x="56.66491754122938" y="28.000000000000004" width="10.528954272863567" height="24.727272727272723" as="geometry" />
        </mxCell>
        <mxCell id="jW4ISnwLS0bRes_p1n_g-35" style="edgeStyle=orthogonalEdgeStyle;rounded=0;orthogonalLoop=1;jettySize=auto;html=1;entryX=0.49;entryY=0.045;entryDx=0;entryDy=0;entryPerimeter=0;" edge="1" parent="jW4ISnwLS0bRes_p1n_g-28" source="jW4ISnwLS0bRes_p1n_g-30" target="jW4ISnwLS0bRes_p1n_g-34">
          <mxGeometry relative="1" as="geometry">
            <Array as="points">
              <mxPoint x="45.17878560719639" y="23.2" />
              <mxPoint x="62.0251124437781" y="23.2" />
            </Array>
          </mxGeometry>
        </mxCell>
        <mxCell id="jW4ISnwLS0bRes_p1n_g-36" value="" style="endArrow=classic;html=1;rounded=0;exitX=0.5;exitY=1;exitDx=0;exitDy=0;" edge="1" parent="jW4ISnwLS0bRes_p1n_g-28" source="jW4ISnwLS0bRes_p1n_g-29">
          <mxGeometry width="50" height="50" relative="1" as="geometry">
            <mxPoint x="62.790854572713634" y="119.856" as="sourcePoint" />
            <mxPoint x="24.503748125937026" y="79.856" as="targetPoint" />
          </mxGeometry>
        </mxCell>
        <mxCell id="jW4ISnwLS0bRes_p1n_g-37" value="weight" style="text;html=1;strokeColor=none;fillColor=none;align=center;verticalAlign=middle;whiteSpace=wrap;rounded=0;" vertex="1" parent="jW4ISnwLS0bRes_p1n_g-28">
          <mxGeometry y="79.856" width="45.944527736131924" height="24" as="geometry" />
        </mxCell>
        <mxCell id="jW4ISnwLS0bRes_p1n_g-38" value="" style="endArrow=classic;html=1;rounded=0;exitX=0.5;exitY=1;exitDx=0;exitDy=0;" edge="1" parent="jW4ISnwLS0bRes_p1n_g-28" source="jW4ISnwLS0bRes_p1n_g-29">
          <mxGeometry width="50" height="50" relative="1" as="geometry">
            <mxPoint x="78.8714392803598" y="63.056" as="sourcePoint" />
            <mxPoint x="70.44827586206895" y="79.856" as="targetPoint" />
          </mxGeometry>
        </mxCell>
        <mxCell id="jW4ISnwLS0bRes_p1n_g-39" value="bias" style="text;html=1;strokeColor=none;fillColor=none;align=center;verticalAlign=middle;whiteSpace=wrap;rounded=0;" vertex="1" parent="jW4ISnwLS0bRes_p1n_g-28">
          <mxGeometry x="45.944527736131924" y="79.856" width="45.944527736131924" height="24" as="geometry" />
        </mxCell>
        <mxCell id="jW4ISnwLS0bRes_p1n_g-40" value="" style="group" vertex="1" connectable="0" parent="jW4ISnwLS0bRes_p1n_g-57">
          <mxGeometry x="234.99094452773613" y="128" width="91.88905547226385" height="103.856" as="geometry" />
        </mxCell>
        <mxCell id="jW4ISnwLS0bRes_p1n_g-41" value="" style="rounded=1;whiteSpace=wrap;html=1;fillColor=#d5e8d4;strokeColor=#82b366;flipH=0;rotation=0;" vertex="1" parent="jW4ISnwLS0bRes_p1n_g-40">
          <mxGeometry x="20.675037481259366" width="52.644771364317826" height="63.05454545454546" as="geometry" />
        </mxCell>
        <mxCell id="jW4ISnwLS0bRes_p1n_g-42" value="Router" style="rounded=0;whiteSpace=wrap;html=1;flipH=0;rotation=0;" vertex="1" parent="jW4ISnwLS0bRes_p1n_g-40">
          <mxGeometry x="32.16116941529235" y="4.8" width="30.27074353448275" height="11.127272727272727" as="geometry" />
        </mxCell>
        <mxCell id="jW4ISnwLS0bRes_p1n_g-43" value="" style="rounded=0;whiteSpace=wrap;html=1;flipH=0;rotation=0;" vertex="1" parent="jW4ISnwLS0bRes_p1n_g-40">
          <mxGeometry x="25.26949025487256" y="28.000000000000004" width="10.528954272863567" height="24.727272727272723" as="geometry" />
        </mxCell>
        <mxCell id="jW4ISnwLS0bRes_p1n_g-44" value="" style="rounded=0;whiteSpace=wrap;html=1;flipH=0;rotation=0;" vertex="1" parent="jW4ISnwLS0bRes_p1n_g-40">
          <mxGeometry x="35.22413793103448" y="28.000000000000004" width="10.528954272863567" height="24.727272727272723" as="geometry" />
        </mxCell>
        <mxCell id="jW4ISnwLS0bRes_p1n_g-45" value="" style="rounded=0;whiteSpace=wrap;html=1;flipH=0;rotation=0;" vertex="1" parent="jW4ISnwLS0bRes_p1n_g-40">
          <mxGeometry x="45.944527736131924" y="28.000000000000004" width="10.528954272863567" height="24.727272727272723" as="geometry" />
        </mxCell>
        <mxCell id="jW4ISnwLS0bRes_p1n_g-46" value="" style="rounded=0;whiteSpace=wrap;html=1;flipH=0;rotation=0;" vertex="1" parent="jW4ISnwLS0bRes_p1n_g-40">
          <mxGeometry x="56.66491754122938" y="28.000000000000004" width="10.528954272863567" height="24.727272727272723" as="geometry" />
        </mxCell>
        <mxCell id="jW4ISnwLS0bRes_p1n_g-47" style="edgeStyle=orthogonalEdgeStyle;rounded=0;orthogonalLoop=1;jettySize=auto;html=1;entryX=0.49;entryY=0.045;entryDx=0;entryDy=0;entryPerimeter=0;" edge="1" parent="jW4ISnwLS0bRes_p1n_g-40" source="jW4ISnwLS0bRes_p1n_g-42" target="jW4ISnwLS0bRes_p1n_g-46">
          <mxGeometry relative="1" as="geometry">
            <Array as="points">
              <mxPoint x="45.17878560719639" y="23.2" />
              <mxPoint x="62.0251124437781" y="23.2" />
            </Array>
          </mxGeometry>
        </mxCell>
        <mxCell id="jW4ISnwLS0bRes_p1n_g-48" value="" style="endArrow=classic;html=1;rounded=0;exitX=0.5;exitY=1;exitDx=0;exitDy=0;" edge="1" parent="jW4ISnwLS0bRes_p1n_g-40" source="jW4ISnwLS0bRes_p1n_g-41">
          <mxGeometry width="50" height="50" relative="1" as="geometry">
            <mxPoint x="62.790854572713634" y="119.856" as="sourcePoint" />
            <mxPoint x="24.503748125937026" y="79.856" as="targetPoint" />
          </mxGeometry>
        </mxCell>
        <mxCell id="jW4ISnwLS0bRes_p1n_g-49" value="weight" style="text;html=1;strokeColor=none;fillColor=none;align=center;verticalAlign=middle;whiteSpace=wrap;rounded=0;" vertex="1" parent="jW4ISnwLS0bRes_p1n_g-40">
          <mxGeometry y="79.856" width="45.944527736131924" height="24" as="geometry" />
        </mxCell>
        <mxCell id="jW4ISnwLS0bRes_p1n_g-50" value="" style="endArrow=classic;html=1;rounded=0;exitX=0.5;exitY=1;exitDx=0;exitDy=0;" edge="1" parent="jW4ISnwLS0bRes_p1n_g-40" source="jW4ISnwLS0bRes_p1n_g-41">
          <mxGeometry width="50" height="50" relative="1" as="geometry">
            <mxPoint x="78.8714392803598" y="63.056" as="sourcePoint" />
            <mxPoint x="70.44827586206895" y="79.856" as="targetPoint" />
          </mxGeometry>
        </mxCell>
        <mxCell id="jW4ISnwLS0bRes_p1n_g-51" value="bias" style="text;html=1;strokeColor=none;fillColor=none;align=center;verticalAlign=middle;whiteSpace=wrap;rounded=0;" vertex="1" parent="jW4ISnwLS0bRes_p1n_g-40">
          <mxGeometry x="45.944527736131924" y="79.856" width="45.944527736131924" height="24" as="geometry" />
        </mxCell>
        <mxCell id="jW4ISnwLS0bRes_p1n_g-52" value="" style="endArrow=classic;html=1;rounded=0;" edge="1" parent="jW4ISnwLS0bRes_p1n_g-57">
          <mxGeometry width="50" height="50" relative="1" as="geometry">
            <mxPoint x="114.86131934032981" y="179.528" as="sourcePoint" />
            <mxPoint x="252.69490254872562" y="179.20000000000002" as="targetPoint" />
          </mxGeometry>
        </mxCell>
        <mxCell id="jW4ISnwLS0bRes_p1n_g-53" style="edgeStyle=orthogonalEdgeStyle;rounded=0;orthogonalLoop=1;jettySize=auto;html=1;entryX=0;entryY=0.5;entryDx=0;entryDy=0;" edge="1" parent="jW4ISnwLS0bRes_p1n_g-57">
          <mxGeometry relative="1" as="geometry">
            <mxPoint x="240.32816716641668" y="217.96800000000002" as="sourcePoint" />
            <mxPoint x="163.75395427286355" y="217.96800000000002" as="targetPoint" />
          </mxGeometry>
        </mxCell>
        <mxCell id="jW4ISnwLS0bRes_p1n_g-54" style="edgeStyle=orthogonalEdgeStyle;rounded=0;orthogonalLoop=1;jettySize=auto;html=1;entryX=0;entryY=0.25;entryDx=0;entryDy=0;" edge="1" parent="jW4ISnwLS0bRes_p1n_g-57">
          <mxGeometry relative="1" as="geometry">
            <mxPoint x="286.2726949025486" y="227.56800000000004" as="sourcePoint" />
            <mxPoint x="160.69098575712144" y="227.56800000000004" as="targetPoint" />
            <Array as="points">
              <mxPoint x="255.6430097451273" y="227.56800000000004" />
              <mxPoint x="255.6430097451273" y="227.56800000000004" />
            </Array>
          </mxGeometry>
        </mxCell>
        <mxCell id="jW4ISnwLS0bRes_p1n_g-55" value="embedding" style="text;html=1;strokeColor=none;fillColor=none;align=center;verticalAlign=middle;whiteSpace=wrap;rounded=0;" vertex="1" parent="jW4ISnwLS0bRes_p1n_g-57">
          <mxGeometry x="91.88905547226385" width="45.944527736131924" height="24" as="geometry" />
        </mxCell>
        <mxCell id="jW4ISnwLS0bRes_p1n_g-56" style="edgeStyle=orthogonalEdgeStyle;rounded=0;orthogonalLoop=1;jettySize=auto;html=1;entryX=0;entryY=0.25;entryDx=0;entryDy=0;" edge="1" parent="jW4ISnwLS0bRes_p1n_g-57">
          <mxGeometry relative="1" as="geometry">
            <mxPoint x="278.7301349325337" y="116.00000000000003" as="sourcePoint" />
            <mxPoint x="153.14842578710642" y="116.00000000000003" as="targetPoint" />
            <Array as="points">
              <mxPoint x="248.1004497751124" y="116.00000000000003" />
              <mxPoint x="248.1004497751124" y="116.00000000000003" />
            </Array>
          </mxGeometry>
        </mxCell>
        <mxCell id="jW4ISnwLS0bRes_p1n_g-58" value="" style="group" vertex="1" connectable="0" parent="1">
          <mxGeometry x="430" y="200" width="100" height="40" as="geometry" />
        </mxCell>
        <mxCell id="jW4ISnwLS0bRes_p1n_g-5" value="encoder" style="rounded=1;whiteSpace=wrap;html=1;" vertex="1" parent="jW4ISnwLS0bRes_p1n_g-58">
          <mxGeometry width="100" height="40" as="geometry" />
        </mxCell>
        <mxCell id="jW4ISnwLS0bRes_p1n_g-15" value="" style="shape=image;verticalLabelPosition=bottom;verticalAlign=top;imageAspect=0;aspect=fixed;image=data:image/svg+xml,PHN2ZyB4bWxuczp4bGluaz0iaHR0cDovL3d3dy53My5vcmcvMTk5OS94bGluayIgeG1sbnM9Imh0dHA6Ly93d3cudzMub3JnLzIwMDAvc3ZnIiBoZWlnaHQ9IjIwMCIgd2lkdGg9IjIwMCIgdmVyc2lvbj0iMS4xIiB2aWV3Qm94PSIwIDAgMTAyNCAxMDI0IiBjbGFzcz0iaWNvbiI+PHBhdGggZmlsbD0iIzUxNTE1MSIgY2xhc3M9IiIgZGF0YS1zcG0tYW5jaG9yLWlkPSJhMzEzeC5zZWFyY2hfaW5kZXguMC5pNS42NGYzM2E4MWRtNXMzeCIgZD0iTTM4NS4xNTA4NDkgMzg1LjY2MjMzOGwtMTI4Ljg5NTEwNSAwIDAtMTUwLjM3NzYyMnEwLTQ5LjEwMjg5NyAxOS40MzY1NjMtOTEuNTU2NDQ0dDUzLjcwNjI5NC03NC42NzczMjMgODAuODE1MTg1LTUwLjYzNzM2MyAxMDEuNzg2MjE0LTE4LjQxMzU4NnE0OS4xMDI4OTcgMCA5NC42MjUzNzUgMTguNDEzNTg2dDgwLjgxNTE4NSA1MC42MzczNjMgNTYuMjYzNzM2IDc0LjY3NzMyMyAyMC45NzEwMjkgOTEuNTU2NDQ0bDAgMTUwLjM3NzYyMi0xMjMuNzgwMjIgMCAwLTEyMS43MzQyNjZxMC02NC40NDc1NTItMzUuODA0MTk2LTk5Ljc0MDI2dC05Ny4xODI4MTctMzUuMjkyNzA3cS01NS4yNDA3NTkgMC04OC45OTkwMDEgMzUuMjkyNzA3dC0zMy43NTgyNDIgOTkuNzQwMjZsMCAxMjEuNzM0MjY2ek04MjYuMDUzOTQ2IDQ0Ny4wNDA5NTlxMjcuNjIwMzggMCA0Ny41Njg0MzIgMTkuOTQ4MDUydDE5Ljk0ODA1MiA0Ny41Njg0MzJsMCAzMTcuMTIyODc3cTAgMjcuNjIwMzgtOS43MTgyODIgNTEuNjYwMzR0LTI2LjU5NzQwMyA0MS45NDIwNTgtMzkuODk2MTA0IDI4LjEzMTg2OC01MC42MzczNjMgMTAuMjI5NzdsLTUxNi42MDMzOTcgMHEtMjcuNjIwMzggMC01MC4xMjU4NzQtMTAuMjI5Nzd0LTM4LjM2MTYzOC0yNy4xMDg4OTEtMjQuNTUxNDQ5LTM5LjM4NDYxNS04LjY5NTMwNS00OC4wNzk5MmwwLTMyNC4yODM3MTZxMC0yNy42MjAzOCAxOS40MzY1NjMtNDcuNTY4NDMydDQ3LjA1Njk0My0xOS45NDgwNTJsNjEuMzc4NjIxIDAgMTI4Ljg5NTEwNSAwIDI1NS43NDQyNTYgMCAxMjMuNzgwMjIgMCA2MS4zNzg2MjEgMHoiLz48L3N2Zz4=;rounded=1;" vertex="1" parent="jW4ISnwLS0bRes_p1n_g-58">
          <mxGeometry x="88" y="30" width="10" height="10" as="geometry" />
        </mxCell>
        <mxCell id="jW4ISnwLS0bRes_p1n_g-59" value="adapter&lt;br&gt;_gai" style="rounded=1;whiteSpace=wrap;html=1;" vertex="1" parent="1">
          <mxGeometry x="460" y="272.5" width="60" height="55" as="geometry" />
        </mxCell>
        <mxCell id="jW4ISnwLS0bRes_p1n_g-60" value="adapter&lt;br&gt;_gai" style="rounded=1;whiteSpace=wrap;html=1;" vertex="1" parent="1">
          <mxGeometry x="540" y="272.5" width="60" height="55" as="geometry" />
        </mxCell>
        <mxCell id="jW4ISnwLS0bRes_p1n_g-64" value="" style="endArrow=classic;html=1;rounded=0;exitX=0.5;exitY=1;exitDx=0;exitDy=0;" edge="1" parent="1" source="jW4ISnwLS0bRes_p1n_g-4" target="jW4ISnwLS0bRes_p1n_g-2">
          <mxGeometry width="50" height="50" relative="1" as="geometry">
            <mxPoint x="270" y="380" as="sourcePoint" />
            <mxPoint x="350" y="348" as="targetPoint" />
            <Array as="points">
              <mxPoint x="410" y="360" />
            </Array>
          </mxGeometry>
        </mxCell>
      </root>
    </mxGraphModel>
  </diagram>
</mxfile>
